<?xml version="1.0" standalone="no"?>
<!DOCTYPE svg PUBLIC "-//W3C//DTD SVG 20010904//EN"
 "http://www.w3.org/TR/2001/REC-SVG-20010904/DTD/svg10.dtd">
<svg version="1.0" xmlns="http://www.w3.org/2000/svg"
 width="512.000000pt" height="512.000000pt" viewBox="0 0 512.000000 512.000000"
 preserveAspectRatio="xMidYMid meet">

<g transform="translate(0.000000,512.000000) scale(0.100000,-0.100000)"
fill="#000000" stroke="none">
<path d="M2365 4544 c-252 -37 -486 -126 -695 -265 -132 -87 -335 -291 -423
-424 -113 -172 -192 -361 -239 -572 -18 -83 -22 -130 -22 -308 0 -181 3 -224
22 -312 62 -282 194 -549 369 -742 32 -35 276 -343 543 -684 439 -562 490
-623 534 -646 92 -48 199 -28 272 51 17 18 233 292 480 608 247 316 483 615
526 663 196 222 317 465 379 757 33 153 33 437 1 598 -68 340 -218 611 -470
853 -155 150 -374 283 -572 349 -168 57 -265 72 -475 75 -110 2 -213 1 -230
-1z m385 -289 c284 -43 540 -172 740 -374 109 -110 172 -199 246 -346 91 -184
124 -317 131 -525 7 -186 -10 -312 -62 -466 -130 -389 -424 -688 -813 -828
-265 -95 -600 -95 -864 0 -459 165 -789 560 -864 1034 -26 162 -16 379 25 534
35 137 120 322 199 431 288 403 780 614 1262 540z"/>
<path d="M2096 3838 c-5 -32 -25 -302 -47 -646 -6 -90 -8 -173 -5 -186 3 -13
37 -62 75 -109 38 -47 72 -99 75 -115 4 -15 -9 -155 -29 -309 -45 -357 -45
-346 4 -394 35 -36 43 -39 92 -39 58 0 97 19 126 60 22 31 20 77 -17 360 -41
323 -41 323 18 400 117 153 107 131 105 239 -3 108 -40 663 -49 729 -4 36 -8
42 -30 42 l-24 0 0 -335 0 -335 -33 0 -34 0 -7 208 c-3 114 -9 264 -13 335 -6
123 -7 127 -28 127 -21 0 -23 -6 -29 -77 -3 -43 -8 -163 -11 -268 -3 -104 -8
-220 -11 -257 -6 -67 -6 -68 -35 -68 l-29 0 0 335 0 335 -30 0 c-25 0 -30 -4
-34 -32z"/>
<path d="M2792 3002 c3 -810 4 -870 21 -895 59 -90 198 -84 243 11 21 44 19
57 -48 413 l-53 281 28 22 c15 11 39 31 54 43 l28 21 0 309 c-1 332 -6 377
-58 495 -42 95 -125 168 -192 168 l-26 0 3 -868z"/>
</g>
</svg>
